<svg xmlns="http://www.w3.org/2000/svg" viewBox="0 0 300 300" aria-hidden="true">
  <g transform="translate(0 300) scale(1 -1)">
    <path d="M66 188Q62 188 59.0 185.0Q56 182 56 178V28Q56 24 59.0 21.5Q62 19 66 19H234Q238 19 241.0 21.5Q244 24 244 28V178Q244 182 241.0 185.0Q238 188 234 188H197Q193 188 190.0 190.5Q187 193 187.5 197.0Q188 201 190.5 203.5Q193 206 197 206H234Q246 206 254.5 198.0Q263 190 262 178V28Q263 16 254.5 8.0Q246 0 234 0H66Q54 0 46.0 8.0Q38 16 37 28V178Q38 190 46.0 198.0Q54 206 66 206H103Q107 206 110.0 203.5Q113 201 112.5 197.0Q112 193 109.5 190.0Q107 187 103 187H66ZM143 297Q146 300 150.0 300.0Q154 300 157 297L213 241Q216 238 216.0 234.0Q216 230 213.0 227.5Q210 225 206.0 225.0Q202 225 200 228L159 268V103Q159 99 156.5 96.5Q154 94 150.0 94.0Q146 94 143.5 96.5Q141 99 141 103V268L100 228Q98 225 94.0 225.0Q90 225 87.0 227.5Q84 230 84.0 234.0Q84 238 87 241Z"/>
  </g>
</svg>
