<svg xmlns="http://www.w3.org/2000/svg" viewBox="0 0 300 300" aria-hidden="true">
  <g transform="translate(0 300) scale(1 -1)">
    <path d="M291 264Q293 261 293.0 257.0Q293 253 291 250L271 231L234 268L253 288Q256 291 260.0 291.0Q264 291 266 288ZM258 218 220 255 93 127Q91 126 90 124L75 78Q74 76 76.0 74.0Q78 72 81 72L126 88Q129 88 130 90ZM19 47Q19 35 27.0 27.0Q35 19 47 19H253Q265 19 273.0 27.0Q281 35 281 47V159Q281 163 278.5 166.0Q276 169 272.0 169.0Q268 169 265.0 166.0Q262 163 262 159V47Q263 43 260.0 40.5Q257 38 253 38H47Q43 38 40.5 40.5Q38 43 38 47V253Q38 257 40.5 260.0Q43 263 47 263H169Q173 263 175.5 265.5Q178 268 178.0 272.0Q178 276 175.5 278.5Q173 281 169 281H47Q35 281 27.0 273.0Q19 265 19 253Z"/>
  </g>
</svg>
